# xmcd
#
# Track frame offsets:
#	150
#	13564
#	26559
#	38467
#	47953
#	64500
#	82465
#	95752
#	105949
#	120607
#	134993
#	145764
#	157148
#	171399
#	183693
#	200320
#
# Disc length: 2829 seconds
#
# Revision: 0
# Processed by: cddbd v1.4PL0 Copyright (c) Steve Scherf et al.
# Submitted via: audiograbber 1.81.00
#
DISCID=e70b0b10
DTITLE=Little Tony - le mie piu' belle canzoni
DYEAR=1900
DGENRE=pop
TTITLE0=cuore matto
TTITLE1=ridera'
TTITLE2=il ragazzo col ciuffo
TTITLE3=profumo di mare
TTITLE4=la fine di Agosto
TTITLE5=il mio amore per giulia
TTITLE6=lacrime
TTITLE7=quando vedrai la mia ragazza
TTITLE8=ti senti sola stasera
TTITLE9=un uomo piange solo per amore
TTITLE10=la donna di picche
TTITLE11=t'amo e t'amero'
TTITLE12=non aspetto nessuno
TTITLE13=bada bambina
TTITLE14=stasera mi pento
TTITLE15=la spada nel cuore
EXTD=
EXTT0=
EXTT1=
EXTT2=
EXTT3=
EXTT4=
EXTT5=
EXTT6=
EXTT7=
EXTT8=
EXTT9=
EXTT10=
EXTT11=
EXTT12=
EXTT13=
EXTT14=
EXTT15=
PLAYORDER=
